<svg width="64" height="32" viewBox="0 0 64 32" fill="none" xmlns="http://www.w3.org/2000/svg">
<path d="M3.99919 0.963531C3.44841 0.963531 2.99919 1.40884 2.99919 1.96353V3.96353C2.99919 4.51431 3.44841 4.96353 3.99919 4.96353C4.54997 4.96353 4.99919 4.51431 4.99919 3.96353V1.96353C4.99919 1.40884 4.54997 0.963531 3.99919 0.963531ZM8.99919 0.963531C8.44841 0.963531 7.99919 1.40884 7.99919 1.96353V3.96353C7.99919 4.51431 8.44841 4.96353 8.99919 4.96353C9.54997 4.96353 9.99919 4.51431 9.99919 3.96353V1.96353C9.99919 1.40884 9.54997 0.963531 8.99919 0.963531ZM13.9992 0.963531C13.4484 0.963531 12.9992 1.40884 12.9992 1.96353V3.96353C12.9992 4.51431 13.4484 4.96353 13.9992 4.96353C14.55 4.96353 14.9992 4.51431 14.9992 3.96353V1.96353C14.9992 1.40884 14.55 0.963531 13.9992 0.963531ZM18.9992 0.963531C18.4484 0.963531 17.9992 1.40884 17.9992 1.96353V3.96353C17.9992 4.51431 18.4484 4.96353 18.9992 4.96353C19.55 4.96353 19.9992 4.51431 19.9992 3.96353V1.96353C19.9992 1.40884 19.55 0.963531 18.9992 0.963531ZM23.9992 0.963531C23.4484 0.963531 22.9992 1.40884 22.9992 1.96353V3.96353C22.9992 4.51431 23.4484 4.96353 23.9992 4.96353C24.55 4.96353 24.9992 4.51431 24.9992 3.96353V1.96353C24.9992 1.40884 24.55 0.963531 23.9992 0.963531ZM28.9992 0.963531C28.4484 0.963531 27.9992 1.40884 27.9992 1.96353V3.96353C27.9992 4.51431 28.4484 4.96353 28.9992 4.96353C29.55 4.96353 29.9992 4.51431 29.9992 3.96353V1.96353C29.9992 1.40884 29.55 0.963531 28.9992 0.963531ZM33.9992 0.963531C33.4484 0.963531 32.9992 1.40884 32.9992 1.96353V3.96353C32.9992 4.51431 33.4484 4.96353 33.9992 4.96353C34.55 4.96353 34.9992 4.51431 34.9992 3.96353V1.96353C34.9992 1.40884 34.55 0.963531 33.9992 0.963531ZM38.9992 0.963531C38.4484 0.963531 37.9992 1.40884 37.9992 1.96353V3.96353C37.9992 4.51431 38.4484 4.96353 38.9992 4.96353C39.55 4.96353 39.9992 4.51431 39.9992 3.96353V1.96353C39.9992 1.40884 39.55 0.963531 38.9992 0.963531ZM43.9992 0.963531C43.4484 0.963531 42.9992 1.40884 42.9992 1.96353V3.96353C42.9992 4.51431 43.4484 4.96353 43.9992 4.96353C44.55 4.96353 44.9992 4.51431 44.9992 3.96353V1.96353C44.9992 1.40884 44.55 0.963531 43.9992 0.963531ZM48.9992 0.963531C48.4484 0.963531 47.9992 1.40884 47.9992 1.96353V3.96353C47.9992 4.51431 48.4484 4.96353 48.9992 4.96353C49.55 4.96353 49.9992 4.51431 49.9992 3.96353V1.96353C49.9992 1.40884 49.55 0.963531 48.9992 0.963531ZM53.9992 0.963531C53.4484 0.963531 52.9992 1.40884 52.9992 1.96353V3.96353C52.9992 4.51431 53.4484 4.96353 53.9992 4.96353C54.55 4.96353 54.9992 4.51431 54.9992 3.96353V1.96353C54.9992 1.40884 54.55 0.963531 53.9992 0.963531ZM58.9992 0.963531C58.4484 0.963531 57.9992 1.40884 57.9992 1.96353V3.96353C57.9992 4.51431 58.4484 4.96353 58.9992 4.96353C59.55 4.96353 59.9992 4.51431 59.9992 3.96353V1.96353C59.9992 1.40884 59.55 0.963531 58.9992 0.963531ZM41.1632 6.54947C38.7336 6.54947 34.8351 7.38541 32.5812 10.0612C32.5617 9.31509 32.2882 8.59634 31.7961 8.02213C31.1906 7.31509 30.3156 6.90884 29.3937 6.90884H26.8234C26.214 6.90884 25.6437 7.08463 25.1593 7.38541C24.8117 7.08463 24.3625 6.89713 23.8625 6.89713H19.2062C18.3507 6.89713 17.5929 7.44009 17.3117 8.24869L15.0773 14.7682L14.2961 10.4713C14.0929 9.03384 12.7843 6.97134 9.92106 6.97134H2.27262C1.11247 6.97134 0.163249 7.77603 0.0187177 8.8815C-0.125814 9.98306 0.569499 11.0299 1.63981 11.3151C2.17106 11.4596 3.58903 11.8932 5.29606 12.8385C5.40153 12.8971 5.48747 13.0143 5.52262 13.1549L9.31169 28.4674C9.67106 29.9088 10.9406 30.9167 12.4015 30.9167H15.8586C17.1672 30.9167 18.3273 30.1159 18.8156 28.8776L21.9054 21.0338L20.9406 27.2643C20.7961 28.2213 21.0656 29.1862 21.6906 29.9128C22.2961 30.6198 23.1711 31.026 24.0929 31.026H26.6672C27.8703 31.026 28.9289 30.3503 29.4718 29.3268C29.8429 29.8581 30.3781 30.276 31.0304 30.5026C32.1789 30.8971 34.0382 31.3698 36.3742 31.3698C38.882 31.3698 41.4718 30.6159 43.4523 29.1667C43.5265 29.3229 43.6125 29.4753 43.7101 29.6237C44.3039 30.4987 45.2843 31.026 46.3351 31.026H48.9054C50.2531 31.026 51.464 30.1549 51.9132 28.8581L52.1984 28.0338H55.4679L55.5382 28.4088C55.8351 29.9245 57.1515 31.026 58.6672 31.026H60.8078C61.7531 31.026 62.6476 30.6003 63.2531 29.8581C63.882 29.1003 64.1281 28.1042 63.9367 27.1315L60.4406 9.51431C60.1437 8.0065 58.8273 6.90884 57.3156 6.90884H54.2765C51.7297 6.90884 50.4562 8.69009 50.0968 9.72134L46.2218 19.4323C45.1047 17.151 42.8625 15.8776 41.3586 15.026C41.2336 14.9557 41.0968 14.8815 40.9523 14.7995C41.6515 14.8034 42.4367 14.9206 43.1086 15.1354C43.4093 15.2292 43.7257 15.276 44.0461 15.276C45.589 15.276 46.8937 14.151 47.1515 12.6003L47.4484 10.7956C47.714 9.18228 46.7531 7.62369 45.214 7.17447C44.2336 6.88931 42.7297 6.54947 41.1632 6.54947ZM41.1632 8.54947C42.4992 8.54947 43.8 8.85025 44.6554 9.09634C45.2257 9.26431 45.5734 9.85806 45.4718 10.4713L45.175 12.276C45.0773 12.8737 44.589 13.2799 44.0461 13.2799C43.9328 13.2799 43.8195 13.2604 43.7062 13.2253C42.8507 12.9557 41.8586 12.7995 40.9367 12.7995C39.3273 12.7995 37.9523 13.2838 37.9523 14.4987C37.9523 16.7721 44.9054 17.2565 44.9054 22.487C44.9015 27.5221 39.7726 29.3737 36.3742 29.3737C34.2843 29.3737 32.6437 28.944 31.6828 28.612C31.1359 28.4245 30.8117 27.8503 30.9093 27.2526L31.2179 25.3776C31.3195 24.7721 31.8156 24.3854 32.3625 24.3854C32.5109 24.3854 32.6593 24.4088 32.8078 24.4674C33.8468 24.8854 35.1515 25.1276 36.3468 25.1276C38.1554 25.1276 39.714 24.569 39.714 23.2018C39.714 20.4713 32.8195 20.4088 32.8195 15.2096C32.8195 9.68619 38.6906 8.54947 41.1632 8.54947ZM19.2023 8.90103H23.8586L23.839 9.02603C23.7648 9.22525 23.7062 9.43619 23.6711 9.65494L23.2961 12.0573L16.9523 28.151C16.7726 28.6159 16.339 28.9167 15.8586 28.9167H12.4015C11.8625 28.9167 11.3898 28.5338 11.2531 27.9831L7.46012 12.6745C7.29216 11.9948 6.85466 11.4167 6.26481 11.0885C4.37809 10.0495 2.79216 9.56119 2.15934 9.38931C1.96794 9.33853 1.882 8.97525 2.27262 8.97525H9.92106C12.1125 8.97525 12.3156 10.7838 12.3156 10.7838L14.0734 20.4362C14.132 20.7682 14.3937 20.9401 14.6554 20.9401C14.8859 20.9401 15.1125 20.8112 15.2101 20.5299L19.2023 8.90103ZM54.2765 8.90884H57.3156C57.8781 8.90884 58.3664 9.32681 58.4797 9.90494L61.9718 27.5182C62.1281 28.2956 61.5617 29.026 60.8078 29.026H58.6672C58.1007 29.026 57.6164 28.6081 57.4992 28.0299L57.3078 27.0378C57.1945 26.4557 56.7062 26.0417 56.1398 26.0417H51.6086C51.1086 26.0417 50.6632 26.3659 50.4914 26.8581L50.0265 28.2057C49.8507 28.6979 49.4054 29.026 48.9054 29.026H46.3351C45.4836 29.026 44.9093 28.1159 45.2375 27.2917L51.9757 10.4088C51.9757 10.4088 52.4289 8.90884 54.2765 8.90884ZM26.8195 8.91275H29.3898C30.1281 8.91275 30.6867 9.60025 30.5656 10.362L27.839 27.9792C27.7453 28.5807 27.2492 29.026 26.6632 29.026H24.0929C23.3586 29.026 22.8 28.3346 22.9211 27.5768L25.2609 12.4635C25.2726 12.4128 25.2922 12.3659 25.3 12.3151L25.7648 9.60806C25.964 9.194 26.3586 8.91275 26.8195 8.91275ZM54.6711 16.0417C54.4406 16.0417 54.2101 16.1745 54.1125 16.4518L52.5031 21.0729C52.3625 21.4792 52.6515 21.9088 53.0617 21.9088H55.5734C55.9523 21.9088 56.2336 21.5495 56.1554 21.1588L55.2531 16.5417C55.1906 16.2135 54.9289 16.0417 54.6711 16.0417ZM31.4015 18.0456C32.4172 20.2878 34.5578 21.4792 36.1086 22.3424C36.4757 22.5456 36.9562 22.8112 37.3117 23.0456C37.0695 23.0924 36.7531 23.1276 36.3429 23.1276C35.4015 23.1276 34.3586 22.9362 33.55 22.612C33.1672 22.4596 32.7687 22.3815 32.3625 22.3815C31.7336 22.3815 31.1476 22.5651 30.6515 22.8854L31.4015 18.0456Z" fill="white" fill-opacity="0.69"/>
</svg>
