<svg xmlns="http://www.w3.org/2000/svg" xmlns:xlink="http://www.w3.org/1999/xlink" xmlns:fi="http://pattern.flaticon.com/" x="0" y="0" width="2560" height="1280" viewBox="0 0 2560 1280"><rect x="0px" y="0px" width="100%" height="100%" opacity="1" fill="#121212"/><defs><path d="M62.935,62.648l0.002,0.006l-0.523,0.115c-0.283,0.045-0.514,0.111-0.726,0.213l-0.22,0.082    c-3.477,1.763-7.143,2.668-10.848,2.668c-0.672,0-1.933-0.178-3.748-0.529c-1.812-0.311-3.784-0.66-5.895-1.041    c-2.107-0.381-4.178-0.744-6.207-1.094c-2.048-0.353-3.632-0.522-4.841-0.522c-0.854,0-1.719,0.041-2.573,0.122l-3.646,0.348    l2.492-2.684c0.25-0.268,0.486-0.535,0.713-0.8c1.117-1.306,2.043-2.685,2.752-4.103c0.708-1.418,1.227-2.98,1.541-4.648    c0.314-1.672,0.475-3.557,0.475-5.602c0-0.933-0.109-1.859-0.326-2.755l-0.416-1.721l13.929-0.027    c0.247-0.021,0.459-0.077,0.666-0.173C47.08,40,48.08,38.636,48.08,37.087c0-1.727-1.234-3.206-2.937-3.519    c-0.124-0.027-0.236-0.042-0.349-0.045l-0.016,0.001c-0.043-0.001-0.077-0.002-0.104-0.004l-0.181,0.013H29.22l-0.306-0.979    C27.311,27.411,26.5,23.067,26.5,19.64c0-1.676,0.313-3.291,0.931-4.8c0.617-1.504,1.477-2.847,2.557-3.99    c1.073-1.138,2.399-2.046,3.941-2.698c1.537-0.649,3.281-0.979,5.181-0.979c7.731,0,11.821,3.674,12.503,11.232    c0.012,0.041,0.021,0.084,0.029,0.127l0.027,0.342l-0.01,0.071c0.008,0.155,0.052,0.392,0.142,0.671    c0.361,2.403,2.306,4.09,4.642,4.09c2.418,0,4.414-1.84,4.664-4.193h-0.002l0.028-0.645c0.001-0.01-0.009-0.088-0.013-0.175    l-0.002-0.103c-0.272-3-0.998-5.703-2.15-8.013c-1.152-2.301-2.677-4.256-4.529-5.809c-1.858-1.56-4.094-2.757-6.64-3.558    C45.248,0.407,42.403,0,39.347,0c-3.309,0-6.367,0.479-9.09,1.424C27.53,2.37,25.159,3.736,23.212,5.48    c-1.953,1.749-3.493,3.927-4.577,6.474c-1.086,2.552-1.637,5.44-1.637,8.589c0,1.484,0.2,3.313,0.595,5.435    c0.31,1.681,0.783,3.622,1.408,5.771l0.518,1.785l-7.941-0.017c-1.819,0.172-3.248,1.708-3.248,3.572    c0,1.83,1.383,3.354,3.215,3.546l0.342,0.062l9.693,0.008l0.24,1.097c0.367,1.689,0.554,3.419,0.554,5.138    c0,2.529-0.241,4.8-0.716,6.744c-0.473,1.939-1.162,3.682-2.05,5.174c-0.886,1.486-1.985,2.804-3.271,3.914    c-1.279,1.107-2.764,2.103-4.408,2.955c-2.65,0.881-5.609,2.477-5.107,5.27c0.41,2.281,2.582,3.941,4.898,3.634    c0.07-0.012,0.072-0.013,0.133-0.042c6.475-2.952,12.355-4.441,17.507-4.441c0.667,0,1.599,0.112,2.769,0.334    c1.172,0.222,2.469,0.494,3.855,0.812c1.395,0.315,2.839,0.663,4.328,1.045c1.49,0.38,2.924,0.729,4.304,1.045    c1.38,0.317,2.639,0.597,3.78,0.834c1.146,0.238,2.03,0.354,2.7,0.354H51.3c5.204,0,10.729-2.176,10.963-2.269    c0.51-0.222,2.07-0.801,2.07-0.801c2.477-0.562,3.999-2.966,3.458-5.378C67.3,63.934,65.175,62.41,62.935,62.648z" transform="matrix(0.6021652817726135 0 0 0.6021652817726135 168.5175512651109 100.45189416408539)" id="L1_64" fill="#ffffff"/><path d="M256,330.667c-53.44,0-99.84-30.293-122.987-74.667H256v-42.667H119.147c-1.067-6.933-1.813-14.08-1.813-21.333    s0.747-14.4,1.813-21.333H256V128H133.013C156.16,83.627,202.453,53.333,256,53.333c34.453,0,65.92,12.587,90.133,33.387    L384,49.067C350.08,18.667,305.173,0,256,0C172.48,0,101.547,53.44,75.2,128H0v42.667h65.28C64.427,177.707,64,184.747,64,192    s0.427,14.293,1.28,21.333H0V256h75.2c26.347,74.56,97.28,128,180.8,128c49.173,0,94.08-18.667,128-49.067l-37.867-37.76    C321.92,317.973,290.453,330.667,256,330.667z" transform="matrix(0.09603691846132278 0 0 0.09603691846132278 8.560911655426025 285.560911655426)" id="L1_65" fill="#ffffff"/><path d="M278.622,224.006V110.243c24.336,4.105,47.283,14.091,66.901,29.087c3.911,2.682,8.5,4.137,13.251,4.201    c15.222,0,27.633-12.249,27.794-27.471c0.032-6.528-2.521-12.798-7.11-17.452c-28.344-24.272-63.895-38.589-101.159-40.722V19.749    c0-10.892-8.823-19.715-19.715-19.715c-0.226-0.032-0.453-0.032-0.679-0.032c-11.053-0.162-20.167,8.662-20.329,19.747v36.844    c-72.718,5.171-122.166,50.095-122.166,109.885c0,73.364,62.376,93.726,122.166,109.885V405.64    c-31.544-4.234-61.277-17.323-85.646-37.813c-4.589-3.652-10.278-5.688-16.16-5.817c-14.899,1.034-26.372,13.509-26.179,28.441    c-0.032,6.528,2.521,12.798,7.11,17.452c33.386,30.057,76.306,47.348,121.197,48.802v35.551c0,0.226,0.032,0.453,0.032,0.679    c0.517,11.053,9.922,19.585,20.975,19.036c10.892,0,19.715-8.823,19.715-19.715v-36.197    c88.231-5.817,123.782-59.467,123.782-116.349C402.404,263.436,338.413,240.166,278.622,224.006z M237.9,213.664    c-35.228-10.342-62.699-21.007-62.699-51.064s24.886-51.711,62.699-54.619V213.664z M278.622,406.286V288.645    c36.521,10.342,64.961,24.239,64.638,58.174C343.26,371.382,326.454,400.469,278.622,406.286z" transform="matrix(0.07138270139694214 0 0 0.07138270139694214 12.721787086825202 103.70341920107603)" id="L1_66" fill="#ffffff"/><path d="M407.4,299.198c0,9.906-8.027,17.927-17.934,17.927H267.61v125.917c0,15.551-12.613,28.165-28.171,28.165   c-15.554,0-28.167-12.614-28.167-28.165V317.125H81.728c-9.897,0-17.921-8.021-17.921-17.927c0-9.901,8.023-17.928,17.921-17.928   h129.538v-49.834l-1.017-1.383H81.728c-9.897,0-17.921-8.027-17.921-17.928c0-9.903,8.023-17.921,17.921-17.921h101.938   L72.98,44.952c-9.265-12.498-6.656-30.136,5.843-39.413c12.492-9.256,30.142-6.646,39.413,5.852l120.52,162.52L352.589,12.771   c8.967-12.706,26.562-15.738,39.253-6.756c12.714,8.976,15.74,26.561,6.762,39.266L293.393,194.205h96.073   c9.906,0,17.934,8.018,17.934,17.921c0,9.901-8.027,17.928-17.934,17.928H268.071l-0.461,0.65v50.561h121.856   C399.373,281.271,407.4,289.297,407.4,299.198z" transform="matrix(0.07202035188674927 0 0 0.07202035188674927 178.0341780711924 273.025963768363)" id="L1_68" fill="#ffffff"/></defs><g fi:class="KUsePattern" opacity="0.06"><pattern id="pattern_L1_66" width="350" height="350" patternUnits="userSpaceOnUse"><use xlink:href="#L1_66" x="-350" y="-350"/><use xlink:href="#L1_66" x="0" y="-350"/><use xlink:href="#L1_66" x="350" y="-350"/><use xlink:href="#L1_66" x="-350" y="0"/><use xlink:href="#L1_66" x="0" y="0"/><use xlink:href="#L1_66" x="350" y="0"/><use xlink:href="#L1_66" x="-350" y="350"/><use xlink:href="#L1_66" x="0" y="350"/><use xlink:href="#L1_66" x="350" y="350"/></pattern><rect x="0" y="0" width="100%" height="100%" fill="url(#pattern_L1_66)"/></g><g fi:class="KUsePattern" opacity="0.05"><pattern id="pattern_L1_64" width="350" height="350" patternUnits="userSpaceOnUse"><use xlink:href="#L1_64" x="-350" y="-350"/><use xlink:href="#L1_64" x="0" y="-350"/><use xlink:href="#L1_64" x="350" y="-350"/><use xlink:href="#L1_64" x="-350" y="0"/><use xlink:href="#L1_64" x="0" y="0"/><use xlink:href="#L1_64" x="350" y="0"/><use xlink:href="#L1_64" x="-350" y="350"/><use xlink:href="#L1_64" x="0" y="350"/><use xlink:href="#L1_64" x="350" y="350"/></pattern><rect x="0" y="0" width="100%" height="100%" fill="url(#pattern_L1_64)"/></g><g fi:class="KUsePattern" opacity="0.05"><pattern id="pattern_L1_65" width="350" height="350" patternUnits="userSpaceOnUse"><use xlink:href="#L1_65" x="-350" y="-350"/><use xlink:href="#L1_65" x="0" y="-350"/><use xlink:href="#L1_65" x="350" y="-350"/><use xlink:href="#L1_65" x="-350" y="0"/><use xlink:href="#L1_65" x="0" y="0"/><use xlink:href="#L1_65" x="350" y="0"/><use xlink:href="#L1_65" x="-350" y="350"/><use xlink:href="#L1_65" x="0" y="350"/><use xlink:href="#L1_65" x="350" y="350"/></pattern><rect x="0" y="0" width="100%" height="100%" fill="url(#pattern_L1_65)"/></g><g fi:class="KUsePattern" opacity="0.05"><pattern id="pattern_L1_68" width="350" height="350" patternUnits="userSpaceOnUse"><use xlink:href="#L1_68" x="-350" y="-350"/><use xlink:href="#L1_68" x="0" y="-350"/><use xlink:href="#L1_68" x="350" y="-350"/><use xlink:href="#L1_68" x="-350" y="0"/><use xlink:href="#L1_68" x="0" y="0"/><use xlink:href="#L1_68" x="350" y="0"/><use xlink:href="#L1_68" x="-350" y="350"/><use xlink:href="#L1_68" x="0" y="350"/><use xlink:href="#L1_68" x="350" y="350"/></pattern><rect x="0" y="0" width="100%" height="100%" fill="url(#pattern_L1_68)"/></g></svg>